<?xml version="1.0" encoding="utf-8"?>
<!-- Generator: Adobe Illustrator 25.2.1, SVG Export Plug-In . SVG Version: 6.00 Build 0)  -->
<svg version="1.1" id="Layer_1" xmlns="http://www.w3.org/2000/svg" xmlns:xlink="http://www.w3.org/1999/xlink" x="0px" y="0px"
	 viewBox="0 0 758.1 164.9" style="enable-background:new 0 0 758.1 164.9;" xml:space="preserve">
<style type="text/css">
	.st0{fill:#FFFFFF;}
</style>
<g>
	<g>
		<path class="st0" d="M325.7,19.9h30.5c0.4,0,0.8,0.2,1.1,0.5c0.3,0.3,0.5,0.7,0.5,1.1c0,0.5-0.2,0.9-0.5,1.2
			c-0.3,0.3-0.7,0.4-1.1,0.4h-29.6l0.8-1.4v25.1l-1-1.1h26.1c0.4,0,0.8,0.2,1.1,0.5c0.3,0.3,0.5,0.7,0.5,1.1c0,0.5-0.2,0.9-0.5,1.2
			c-0.3,0.3-0.7,0.4-1.1,0.4h-25.9l0.8-0.9v25.7l-0.3-0.4h29.1c0.4,0,0.8,0.2,1.1,0.5c0.3,0.3,0.5,0.7,0.5,1.1
			c0,0.5-0.2,0.9-0.5,1.2c-0.3,0.3-0.7,0.4-1.1,0.4h-30.5c-0.4,0-0.8-0.2-1.1-0.5c-0.3-0.3-0.5-0.7-0.5-1.1V21.5
			c0-0.4,0.2-0.8,0.5-1.1C324.9,20,325.3,19.9,325.7,19.9z"/>
		<path class="st0" d="M392.7,19.9c4,0,7.6,0.8,10.5,2.3c3,1.5,5.4,3.6,7.3,6.3c1.9,2.7,3.3,5.7,4.3,9.1s1.4,6.9,1.4,10.6
			c0,5.2-0.8,9.9-2.5,14.2c-1.6,4.3-4.2,7.7-7.7,10.3c-3.5,2.6-7.9,3.8-13.4,3.8h-21.1c-0.4,0-0.8-0.2-1.1-0.5
			c-0.3-0.3-0.5-0.7-0.5-1.1V21.5c0-0.4,0.2-0.8,0.5-1.1c0.3-0.3,0.7-0.5,1.1-0.5H392.7z M391.9,73.3c5,0,9-1.1,12-3.4
			c3.1-2.2,5.3-5.3,6.7-9.1c1.4-3.8,2.1-8,2.1-12.7c0-3.3-0.4-6.5-1.2-9.5c-0.8-3-2-5.7-3.7-8.1c-1.7-2.3-3.8-4.2-6.5-5.5
			c-2.6-1.3-5.8-2-9.6-2h-19l0.5-0.6v51.6l-0.5-0.7H391.9z"/>
		<path class="st0" d="M429.9,76.6c-0.5,0-0.9-0.2-1.2-0.5c-0.3-0.3-0.4-0.7-0.4-1.1V21.5c0-0.4,0.2-0.8,0.5-1.1
			c0.3-0.3,0.7-0.5,1.1-0.5h30.5c0.4,0,0.8,0.2,1.1,0.5c0.3,0.3,0.5,0.7,0.5,1.1c0,0.5-0.2,0.9-0.5,1.2c-0.3,0.3-0.7,0.4-1.1,0.4
			h-29.2l0.2-0.3v23.3l-0.3-0.6h25.6c0.4,0,0.8,0.2,1.1,0.5c0.3,0.3,0.5,0.7,0.5,1.1c0,0.5-0.2,0.9-0.5,1.2
			c-0.3,0.3-0.7,0.4-1.1,0.4h-25.8l0.5-0.6V75c0,0.4-0.1,0.8-0.4,1.1C430.8,76.4,430.4,76.6,429.9,76.6z"/>
		<path class="st0" d="M12.8,105.1h21.5c0.3,0,0.6,0.1,0.8,0.3c0.2,0.2,0.3,0.5,0.3,0.8c0,0.3-0.1,0.6-0.3,0.8
			c-0.2,0.2-0.5,0.3-0.8,0.3H13.5l0.6-1v17.7l-0.7-0.8h18.4c0.3,0,0.6,0.1,0.8,0.3s0.3,0.5,0.3,0.8c0,0.3-0.1,0.6-0.3,0.8
			c-0.2,0.2-0.5,0.3-0.8,0.3H13.5l0.6-0.6V143l-0.2-0.3h20.5c0.3,0,0.6,0.1,0.8,0.3c0.2,0.2,0.3,0.5,0.3,0.8c0,0.3-0.1,0.6-0.3,0.8
			c-0.2,0.2-0.5,0.3-0.8,0.3H12.8c-0.3,0-0.6-0.1-0.8-0.3c-0.2-0.2-0.3-0.5-0.3-0.8v-37.6c0-0.3,0.1-0.6,0.3-0.8
			C12.3,105.2,12.5,105.1,12.8,105.1z"/>
		<path class="st0" d="M56,115.6c2.4,0,4.3,0.5,5.8,1.4c1.5,1,2.6,2.2,3.3,3.9c0.7,1.6,1.1,3.5,1.1,5.5v17.4c0,0.3-0.1,0.6-0.3,0.8
			c-0.2,0.2-0.5,0.3-0.8,0.3c-0.3,0-0.6-0.1-0.8-0.3c-0.2-0.2-0.3-0.5-0.3-0.8v-17.2c0-1.6-0.3-3.1-0.8-4.4
			c-0.6-1.3-1.4-2.4-2.6-3.2c-1.2-0.8-2.8-1.2-4.7-1.2c-1.7,0-3.3,0.4-4.9,1.2s-2.9,1.9-4,3.2c-1,1.3-1.6,2.8-1.6,4.4v17.2
			c0,0.3-0.1,0.6-0.3,0.8c-0.2,0.2-0.5,0.3-0.8,0.3c-0.3,0-0.6-0.1-0.8-0.3c-0.2-0.2-0.3-0.5-0.3-0.8v-26.2c0-0.3,0.1-0.6,0.3-0.8
			c0.2-0.2,0.5-0.3,0.8-0.3c0.3,0,0.6,0.1,0.8,0.3c0.2,0.2,0.3,0.5,0.3,0.8v5.6l-1.4,2.7c0-1.4,0.4-2.7,1.1-3.9
			c0.7-1.3,1.7-2.4,2.9-3.3c1.2-1,2.5-1.7,3.9-2.3C53.2,115.9,54.6,115.6,56,115.6z"/>
		<path class="st0" d="M74.3,115.5c0.2,0,0.4,0.1,0.6,0.2c0.2,0.1,0.4,0.3,0.4,0.5l10.5,25.3l-0.6,0.4L96,116.3
			c0.2-0.5,0.6-0.7,1.2-0.7c0.2,0,0.4,0.1,0.7,0.2c0.3,0.2,0.4,0.4,0.4,0.7c0,0.2,0,0.3-0.1,0.4c0,0.1-0.1,0.2-0.1,0.3l-11.3,27.1
			c-0.2,0.5-0.6,0.7-1.1,0.7c-0.2,0-0.4-0.1-0.7-0.2c-0.2-0.1-0.4-0.3-0.4-0.5l-11.4-27.1c0-0.1-0.1-0.2-0.1-0.3c0-0.1,0-0.2,0-0.3
			c0-0.3,0.1-0.6,0.3-0.8C73.6,115.6,73.9,115.5,74.3,115.5z"/>
		<path class="st0" d="M106.3,111.7c-0.6,0-1.1-0.2-1.5-0.5c-0.4-0.3-0.5-0.8-0.5-1.3v-0.5c0-0.5,0.2-1,0.6-1.3
			c0.4-0.3,0.9-0.5,1.5-0.5c0.5,0,1,0.2,1.3,0.5c0.4,0.3,0.5,0.8,0.5,1.3v0.5c0,0.5-0.2,1-0.5,1.3
			C107.4,111.6,106.9,111.7,106.3,111.7z M107.5,143.8c0,0.3-0.1,0.6-0.3,0.8c-0.2,0.2-0.5,0.3-0.8,0.3c-0.3,0-0.6-0.1-0.8-0.3
			c-0.2-0.2-0.3-0.5-0.3-0.8v-27.1c0-0.3,0.1-0.6,0.3-0.8c0.2-0.2,0.5-0.3,0.8-0.3c0.3,0,0.6,0.1,0.8,0.3c0.2,0.2,0.3,0.5,0.3,0.8
			V143.8z"/>
		<path class="st0" d="M118.1,145c-0.3,0-0.6-0.1-0.8-0.3c-0.2-0.2-0.3-0.5-0.3-0.8v-26.2c0-0.3,0.1-0.6,0.3-0.8
			c0.2-0.2,0.5-0.3,0.8-0.3c0.3,0,0.6,0.1,0.8,0.3c0.2,0.2,0.3,0.5,0.3,0.8v9.6l-1,1.5c0-1.5,0.3-3,0.8-4.5c0.5-1.5,1.3-2.9,2.3-4.2
			c1-1.3,2.2-2.4,3.6-3.2c1.4-0.8,3.1-1.2,4.9-1.2c0.5,0,1.1,0.1,1.7,0.2c0.6,0.2,0.9,0.5,0.9,1.1c0,0.3-0.1,0.6-0.3,0.9
			c-0.2,0.2-0.4,0.3-0.7,0.3c-0.2,0-0.5-0.1-0.8-0.3c-0.3-0.2-0.8-0.3-1.4-0.3c-1.2,0-2.4,0.4-3.6,1.1c-1.2,0.7-2.3,1.7-3.2,2.9
			c-1,1.2-1.7,2.5-2.3,3.9c-0.6,1.4-0.9,2.8-0.9,4.1v14.2c0,0.3-0.1,0.6-0.3,0.8C118.6,144.9,118.4,145,118.1,145z"/>
		<path class="st0" d="M164,130.6c0,2.8-0.6,5.3-1.8,7.6c-1.2,2.3-2.9,4-5,5.4s-4.5,2-7.2,2c-2.7,0-5.1-0.7-7.2-2
			c-2.1-1.3-3.8-3.1-5-5.4c-1.2-2.3-1.9-4.8-1.9-7.6c0-2.8,0.6-5.4,1.9-7.7c1.2-2.3,2.9-4,5-5.4c2.1-1.3,4.5-2,7.2-2
			c2.7,0,5.1,0.7,7.2,2c2.1,1.3,3.8,3.1,5,5.4C163.4,125.2,164,127.8,164,130.6z M161.7,130.6c0-2.5-0.5-4.7-1.5-6.6
			c-1-1.9-2.4-3.4-4.2-4.6c-1.8-1.1-3.8-1.7-6.1-1.7c-2.2,0-4.3,0.6-6,1.7c-1.8,1.1-3.2,2.6-4.2,4.6c-1,1.9-1.5,4.1-1.5,6.6
			c0,2.4,0.5,4.6,1.5,6.5c1,1.9,2.4,3.4,4.2,4.6c1.8,1.1,3.8,1.7,6,1.7c2.3,0,4.3-0.6,6.1-1.7c1.8-1.1,3.2-2.6,4.2-4.6
			C161.2,135.2,161.7,133,161.7,130.6z"/>
		<path class="st0" d="M184.4,115.6c2.4,0,4.3,0.5,5.8,1.4c1.5,1,2.6,2.2,3.3,3.9c0.7,1.6,1.1,3.5,1.1,5.5v17.4
			c0,0.3-0.1,0.6-0.3,0.8c-0.2,0.2-0.5,0.3-0.8,0.3c-0.3,0-0.6-0.1-0.8-0.3c-0.2-0.2-0.3-0.5-0.3-0.8v-17.2c0-1.6-0.3-3.1-0.8-4.4
			c-0.6-1.3-1.4-2.4-2.6-3.2c-1.2-0.8-2.8-1.2-4.7-1.2c-1.7,0-3.3,0.4-4.9,1.2s-2.9,1.9-4,3.2c-1,1.3-1.6,2.8-1.6,4.4v17.2
			c0,0.3-0.1,0.6-0.3,0.8c-0.2,0.2-0.5,0.3-0.8,0.3c-0.3,0-0.6-0.1-0.8-0.3c-0.2-0.2-0.3-0.5-0.3-0.8v-26.2c0-0.3,0.1-0.6,0.3-0.8
			c0.2-0.2,0.5-0.3,0.8-0.3c0.3,0,0.6,0.1,0.8,0.3c0.2,0.2,0.3,0.5,0.3,0.8v5.6l-1.4,2.7c0-1.4,0.4-2.7,1.1-3.9
			c0.7-1.3,1.7-2.4,2.9-3.3c1.2-1,2.5-1.7,3.9-2.3C181.6,115.9,183,115.6,184.4,115.6z"/>
		<path class="st0" d="M216.2,116.2c2.1,0,4.1,0.6,5.8,1.7c1.8,1.2,3,3,3.6,5.4l-0.7,0.5l0.3-1.1c0.5-1.3,1.4-2.4,2.6-3.4
			c1.2-1,2.6-1.8,4.2-2.4c1.5-0.6,3-0.9,4.5-0.9c2.3,0,4.2,0.5,5.6,1.5s2.6,2.3,3.3,4c0.7,1.7,1.1,3.5,1.1,5.6v16.6
			c0,0.3-0.1,0.6-0.3,0.8c-0.2,0.2-0.5,0.3-0.8,0.3c-0.3,0-0.6-0.1-0.8-0.3c-0.2-0.2-0.3-0.5-0.3-0.8v-16.4c0-1.7-0.3-3.2-0.8-4.6
			c-0.6-1.4-1.4-2.5-2.6-3.3c-1.2-0.8-2.7-1.2-4.5-1.2c-1.6,0-3.2,0.4-4.8,1.2c-1.6,0.8-2.8,1.9-3.8,3.3c-1,1.4-1.5,2.9-1.5,4.6
			v16.4c0,0.3-0.1,0.6-0.3,0.8c-0.2,0.2-0.5,0.3-0.8,0.3c-0.3,0-0.6-0.1-0.8-0.3c-0.2-0.2-0.3-0.5-0.3-0.8v-16.6
			c0-1.6-0.3-3.1-0.8-4.4c-0.5-1.3-1.3-2.4-2.4-3.2c-1.1-0.8-2.6-1.2-4.4-1.2c-1.6,0-3.1,0.4-4.6,1.2c-1.5,0.8-2.7,1.9-3.7,3.2
			c-1,1.3-1.5,2.8-1.5,4.4v16.6c0,0.3-0.1,0.6-0.3,0.8c-0.2,0.2-0.5,0.3-0.8,0.3c-0.3,0-0.6-0.1-0.8-0.3c-0.2-0.2-0.3-0.5-0.3-0.8
			v-26.2c0-0.3,0.1-0.6,0.3-0.8c0.2-0.2,0.5-0.3,0.8-0.3c0.3,0,0.6,0.1,0.8,0.3c0.2,0.2,0.3,0.5,0.3,0.8v6.2l-1.7,2.9
			c0-1.3,0.3-2.6,1-3.9c0.6-1.3,1.5-2.4,2.6-3.4s2.3-1.8,3.7-2.4C213.3,116.5,214.7,116.2,216.2,116.2z"/>
		<path class="st0" d="M268.5,145.5c-2.9,0-5.4-0.6-7.6-1.8c-2.2-1.2-3.9-2.9-5.2-5.2c-1.3-2.2-1.9-4.8-1.9-7.8
			c0-3.2,0.6-5.9,1.9-8.2c1.2-2.2,2.8-4,4.8-5.2c2-1.2,4-1.8,6.2-1.8c1.6,0,3.2,0.3,4.7,0.8c1.5,0.5,2.9,1.3,4.1,2.4
			c1.2,1.1,2.2,2.4,2.9,4c0.7,1.6,1.1,3.5,1.2,5.8c0,0.3-0.1,0.6-0.3,0.8s-0.5,0.4-0.8,0.4h-23.3l-0.3-2.2h23l-0.6,0.5v-1
			c-0.2-2-0.8-3.7-1.9-5.1s-2.4-2.4-3.9-3.1c-1.5-0.7-3.1-1.1-4.7-1.1c-1.1,0-2.3,0.3-3.6,0.8s-2.4,1.3-3.5,2.3
			c-1.1,1-1.9,2.4-2.6,4c-0.7,1.6-1,3.5-1,5.6c0,2.3,0.5,4.4,1.4,6.4c0.9,1.9,2.3,3.5,4.2,4.7c1.8,1.2,4.1,1.8,6.8,1.8
			c1.3,0,2.5-0.2,3.6-0.7c1.1-0.4,2.2-1,3.1-1.7c0.9-0.7,1.7-1.5,2.2-2.3c0.3-0.3,0.6-0.5,1-0.5c0.3,0,0.5,0.1,0.7,0.3
			c0.2,0.2,0.3,0.4,0.3,0.7c0,0.3-0.1,0.5-0.2,0.7c-1.2,1.5-2.7,2.8-4.5,4C272.8,145,270.7,145.5,268.5,145.5z"/>
		<path class="st0" d="M300.1,115.6c2.4,0,4.3,0.5,5.8,1.4c1.5,1,2.6,2.2,3.3,3.9c0.7,1.6,1.1,3.5,1.1,5.5v17.4
			c0,0.3-0.1,0.6-0.3,0.8c-0.2,0.2-0.5,0.3-0.8,0.3c-0.3,0-0.6-0.1-0.8-0.3c-0.2-0.2-0.3-0.5-0.3-0.8v-17.2c0-1.6-0.3-3.1-0.8-4.4
			c-0.6-1.3-1.4-2.4-2.6-3.2c-1.2-0.8-2.8-1.2-4.7-1.2c-1.7,0-3.3,0.4-4.9,1.2s-2.9,1.9-4,3.2c-1,1.3-1.6,2.8-1.6,4.4v17.2
			c0,0.3-0.1,0.6-0.3,0.8c-0.2,0.2-0.5,0.3-0.8,0.3c-0.3,0-0.6-0.1-0.8-0.3c-0.2-0.2-0.3-0.5-0.3-0.8v-26.2c0-0.3,0.1-0.6,0.3-0.8
			c0.2-0.2,0.5-0.3,0.8-0.3c0.3,0,0.6,0.1,0.8,0.3c0.2,0.2,0.3,0.5,0.3,0.8v5.6L288,126c0-1.4,0.4-2.7,1.1-3.9
			c0.7-1.3,1.7-2.4,2.9-3.3c1.2-1,2.5-1.7,3.9-2.3C297.2,115.9,298.7,115.6,300.1,115.6z"/>
		<path class="st0" d="M317.1,116.3h13.2c0.3,0,0.6,0.1,0.8,0.3c0.2,0.2,0.3,0.5,0.3,0.7c0,0.3-0.1,0.6-0.3,0.8
			c-0.2,0.2-0.5,0.3-0.8,0.3h-13.2c-0.3,0-0.5-0.1-0.7-0.3c-0.2-0.2-0.3-0.5-0.3-0.7c0-0.3,0.1-0.6,0.3-0.8
			C316.6,116.4,316.8,116.3,317.1,116.3z M322.9,107.9c0.3,0,0.6,0.1,0.8,0.3c0.2,0.2,0.3,0.5,0.3,0.8v29.7c0,1.3,0.2,2.2,0.5,2.8
			c0.3,0.6,0.7,1,1.2,1.1c0.5,0.2,1,0.3,1.4,0.3c0.3,0,0.5,0,0.7-0.1c0.2-0.1,0.4-0.1,0.7-0.1c0.3,0,0.5,0.1,0.7,0.3
			c0.2,0.2,0.3,0.4,0.3,0.7c0,0.3-0.2,0.6-0.7,0.9c-0.4,0.2-1,0.4-1.6,0.4c-0.2,0-0.6,0-1.2,0c-0.6,0-1.2-0.2-1.9-0.5
			c-0.7-0.3-1.2-0.9-1.7-1.8c-0.5-0.9-0.7-2.1-0.7-3.8v-29.8c0-0.3,0.1-0.6,0.3-0.8S322.6,107.9,322.9,107.9z"/>
		<path class="st0" d="M361,116.5c0.3,0,0.6,0.1,0.8,0.3c0.2,0.2,0.3,0.5,0.3,0.8v26.2c0,0.3-0.1,0.6-0.3,0.8
			c-0.2,0.2-0.5,0.3-0.8,0.3c-0.3,0-0.6-0.1-0.8-0.3c-0.2-0.2-0.3-0.5-0.3-0.8v-8.1l0.9-0.7c0,1.2-0.3,2.5-0.9,3.7
			c-0.6,1.3-1.4,2.4-2.5,3.4c-1.1,1-2.3,1.9-3.8,2.5c-1.4,0.6-3,0.9-4.7,0.9c-2.5,0-4.8-0.7-6.8-2s-3.6-3.1-4.7-5.4
			c-1.1-2.3-1.7-4.8-1.7-7.7c0-2.9,0.6-5.4,1.7-7.7c1.2-2.2,2.7-4,4.7-5.2c2-1.3,4.2-1.9,6.8-1.9c1.6,0,3.2,0.3,4.6,0.9
			c1.4,0.6,2.7,1.4,3.8,2.5c1.1,1.1,1.9,2.3,2.5,3.7c0.6,1.4,0.9,3,0.9,4.6l-0.9-1.4v-8.3c0-0.3,0.1-0.6,0.3-0.8
			C360.4,116.7,360.7,116.5,361,116.5z M349.1,143.4c2.1,0,4-0.6,5.7-1.7c1.7-1.1,3-2.7,3.9-4.6c0.9-2,1.4-4.2,1.4-6.6
			c0-2.4-0.5-4.5-1.4-6.4c-1-1.9-2.3-3.4-3.9-4.6c-1.7-1.1-3.6-1.7-5.7-1.7c-2.1,0-4,0.5-5.6,1.6c-1.7,1.1-3,2.6-4,4.5
			c-1,1.9-1.5,4.1-1.5,6.6c0,2.5,0.5,4.7,1.4,6.6c0.9,2,2.3,3.5,3.9,4.6C345,142.8,346.9,143.4,349.1,143.4z"/>
		<path class="st0" d="M374.2,143.8c0,0.3-0.1,0.6-0.3,0.8c-0.2,0.2-0.5,0.3-0.8,0.3c-0.3,0-0.6-0.1-0.8-0.3
			c-0.2-0.2-0.3-0.5-0.3-0.8v-39.9c0-0.3,0.1-0.6,0.3-0.8c0.2-0.2,0.5-0.3,0.8-0.3c0.3,0,0.6,0.1,0.8,0.3c0.2,0.2,0.3,0.5,0.3,0.8
			V143.8z"/>
		<path class="st0" d="M416.3,105.1c2.8,0,5.3,0.5,7.4,1.6c2.1,1.1,3.8,2.6,5.2,4.4c1.3,1.9,2.3,4,3,6.4s1,4.9,1,7.5
			c0,3.6-0.6,7-1.7,10c-1.2,3-3,5.4-5.4,7.2c-2.4,1.8-5.6,2.7-9.4,2.7h-14.8c-0.3,0-0.6-0.1-0.8-0.3c-0.2-0.2-0.3-0.5-0.3-0.8v-37.6
			c0-0.3,0.1-0.6,0.3-0.8c0.2-0.2,0.5-0.3,0.8-0.3H416.3z M415.7,142.7c3.5,0,6.3-0.8,8.5-2.4c2.1-1.6,3.7-3.7,4.7-6.4
			c1-2.7,1.5-5.7,1.5-8.9c0-2.3-0.3-4.5-0.8-6.7c-0.6-2.1-1.4-4-2.6-5.7c-1.2-1.7-2.7-3-4.6-3.9c-1.9-0.9-4.1-1.4-6.7-1.4h-13.3
			l0.3-0.5v36.3l-0.3-0.5H415.7z"/>
		<path class="st0" d="M453,145.5c-2.9,0-5.4-0.6-7.6-1.8c-2.2-1.2-3.9-2.9-5.2-5.2c-1.3-2.2-1.9-4.8-1.9-7.8c0-3.2,0.6-5.9,1.9-8.2
			c1.2-2.2,2.8-4,4.8-5.2c2-1.2,4-1.8,6.2-1.8c1.6,0,3.2,0.3,4.7,0.8c1.5,0.5,2.9,1.3,4.1,2.4c1.2,1.1,2.2,2.4,2.9,4
			c0.7,1.6,1.1,3.5,1.2,5.8c0,0.3-0.1,0.6-0.3,0.8c-0.2,0.2-0.5,0.4-0.8,0.4h-23.3l-0.3-2.2h23l-0.6,0.5v-1c-0.2-2-0.8-3.7-1.9-5.1
			s-2.4-2.4-3.9-3.1s-3.1-1.1-4.7-1.1c-1.1,0-2.3,0.3-3.6,0.8s-2.4,1.3-3.5,2.3c-1.1,1-1.9,2.4-2.6,4s-1,3.5-1,5.6
			c0,2.3,0.5,4.4,1.4,6.4c0.9,1.9,2.3,3.5,4.2,4.7c1.8,1.2,4.1,1.8,6.8,1.8c1.3,0,2.5-0.2,3.6-0.7c1.1-0.4,2.2-1,3.1-1.7
			c0.9-0.7,1.7-1.5,2.2-2.3c0.3-0.3,0.6-0.5,1-0.5c0.3,0,0.5,0.1,0.7,0.3s0.3,0.4,0.3,0.7c0,0.3-0.1,0.5-0.2,0.7
			c-1.2,1.5-2.7,2.8-4.5,4C457.3,145,455.2,145.5,453,145.5z"/>
		<path class="st0" d="M483.1,116.9c0.3,0,0.6,0.1,0.8,0.3c0.2,0.2,0.3,0.5,0.3,0.8s-0.1,0.6-0.3,0.8c-0.2,0.2-0.5,0.3-0.8,0.3
			h-13.6c-0.3,0-0.5-0.1-0.7-0.3c-0.2-0.2-0.3-0.5-0.3-0.7c0-0.3,0.1-0.6,0.3-0.8c0.2-0.2,0.5-0.3,0.7-0.3H483.1z M480.5,103.1
			c0.5,0,1,0,1.6,0.1c0.6,0.1,1.2,0.2,1.7,0.5c0.5,0.2,0.7,0.6,0.7,1c0,0.3-0.1,0.5-0.3,0.8c-0.2,0.2-0.5,0.4-0.8,0.4
			c-0.4,0-0.8-0.1-1.4-0.3c-0.5-0.2-1.1-0.3-1.8-0.3c-0.8,0-1.4,0.2-2,0.5s-1,0.9-1.4,1.6c-0.3,0.7-0.5,1.6-0.5,2.7v33.9
			c0,0.3-0.1,0.6-0.3,0.8c-0.2,0.2-0.5,0.3-0.8,0.3c-0.3,0-0.6-0.1-0.8-0.3c-0.2-0.2-0.3-0.5-0.3-0.8v-33.9c0-2.4,0.6-4.1,1.9-5.2
			C477.3,103.6,478.8,103.1,480.5,103.1z"/>
		<path class="st0" d="M503.1,145.5c-2.9,0-5.4-0.6-7.6-1.8c-2.2-1.2-3.9-2.9-5.2-5.2c-1.3-2.2-1.9-4.8-1.9-7.8
			c0-3.2,0.6-5.9,1.9-8.2c1.2-2.2,2.8-4,4.8-5.2c2-1.2,4-1.8,6.2-1.8c1.6,0,3.2,0.3,4.7,0.8c1.5,0.5,2.9,1.3,4.1,2.4
			c1.2,1.1,2.2,2.4,2.9,4c0.7,1.6,1.1,3.5,1.2,5.8c0,0.3-0.1,0.6-0.3,0.8c-0.2,0.2-0.5,0.4-0.8,0.4h-23.3l-0.3-2.2h23l-0.6,0.5v-1
			c-0.2-2-0.8-3.7-1.9-5.1s-2.4-2.4-3.9-3.1s-3.1-1.1-4.7-1.1c-1.1,0-2.3,0.3-3.6,0.8s-2.4,1.3-3.5,2.3c-1.1,1-1.9,2.4-2.6,4
			s-1,3.5-1,5.6c0,2.3,0.5,4.4,1.4,6.4c0.9,1.9,2.3,3.5,4.2,4.7c1.8,1.2,4.1,1.8,6.8,1.8c1.3,0,2.5-0.2,3.6-0.7
			c1.1-0.4,2.2-1,3.1-1.7c0.9-0.7,1.7-1.5,2.2-2.3c0.3-0.3,0.6-0.5,1-0.5c0.3,0,0.5,0.1,0.7,0.3s0.3,0.4,0.3,0.7
			c0,0.3-0.1,0.5-0.2,0.7c-1.2,1.5-2.7,2.8-4.5,4C507.4,145,505.4,145.5,503.1,145.5z"/>
		<path class="st0" d="M534.7,115.6c2.4,0,4.3,0.5,5.8,1.4c1.5,1,2.6,2.2,3.3,3.9s1.1,3.5,1.1,5.5v17.4c0,0.3-0.1,0.6-0.3,0.8
			c-0.2,0.2-0.5,0.3-0.8,0.3c-0.3,0-0.6-0.1-0.8-0.3c-0.2-0.2-0.3-0.5-0.3-0.8v-17.2c0-1.6-0.3-3.1-0.8-4.4
			c-0.6-1.3-1.4-2.4-2.6-3.2s-2.8-1.2-4.7-1.2c-1.7,0-3.3,0.4-4.9,1.2s-2.9,1.9-4,3.2s-1.6,2.8-1.6,4.4v17.2c0,0.3-0.1,0.6-0.3,0.8
			c-0.2,0.2-0.5,0.3-0.8,0.3c-0.3,0-0.6-0.1-0.8-0.3c-0.2-0.2-0.3-0.5-0.3-0.8v-26.2c0-0.3,0.1-0.6,0.3-0.8c0.2-0.2,0.5-0.3,0.8-0.3
			c0.3,0,0.6,0.1,0.8,0.3c0.2,0.2,0.3,0.5,0.3,0.8v5.6l-1.4,2.7c0-1.4,0.4-2.7,1.1-3.9c0.7-1.3,1.7-2.4,2.8-3.3
			c1.2-1,2.5-1.7,3.9-2.3C531.9,115.9,533.3,115.6,534.7,115.6z"/>
		<path class="st0" d="M552.8,140.4c-0.3-0.5-0.4-0.8-0.4-1.1c0-0.3,0.2-0.5,0.4-0.7c0.2-0.2,0.4-0.3,0.8-0.3c0.3,0,0.6,0.2,0.8,0.4
			c1,1.4,2.3,2.5,3.8,3.4c1.5,0.9,3.4,1.3,5.4,1.3c1.3,0,2.5-0.2,3.6-0.6c1.2-0.4,2.1-1,2.8-1.9c0.7-0.8,1.1-1.9,1.1-3.1
			c0-1.3-0.4-2.3-1.1-3.1c-0.7-0.8-1.7-1.4-2.8-1.9c-1.1-0.5-2.3-0.8-3.6-1.1c-1.3-0.3-2.6-0.7-3.8-1.2c-1.2-0.4-2.3-1-3.2-1.7
			s-1.6-1.5-2.2-2.4c-0.5-0.9-0.8-2-0.8-3.2c0-1.5,0.4-2.8,1.2-4s1.9-2.1,3.4-2.8c1.4-0.7,3.1-1,5-1c0.9,0,1.9,0.1,2.9,0.3
			c1,0.2,2.1,0.6,3.1,1.2c1,0.6,2,1.3,2.8,2.3c0.3,0.2,0.4,0.5,0.4,0.8c0,0.3-0.2,0.6-0.4,0.9c-0.2,0.2-0.5,0.2-0.7,0.2
			s-0.5-0.1-0.7-0.3c-1-1.1-2.1-1.9-3.4-2.5c-1.3-0.5-2.7-0.8-4.2-0.8c-1.3,0-2.4,0.2-3.5,0.6s-2,1-2.7,1.9c-0.7,0.8-1,1.9-1,3.1
			c0.1,1.2,0.5,2.1,1.2,2.9c0.7,0.8,1.7,1.4,3,1.9c1.2,0.5,2.6,1,4.2,1.4c1.3,0.3,2.4,0.7,3.5,1.1c1.1,0.4,2,0.9,2.8,1.5
			c0.8,0.6,1.5,1.4,1.9,2.3c0.5,0.9,0.7,2.1,0.7,3.4c0,1.6-0.4,3-1.3,4.1c-0.9,1.2-2,2.1-3.5,2.7s-3.2,0.9-5.2,0.9
			c-2,0-3.9-0.4-5.7-1.2S554.3,142.2,552.8,140.4z"/>
		<path class="st0" d="M593.5,145.5c-2.9,0-5.4-0.6-7.6-1.8c-2.2-1.2-3.9-2.9-5.2-5.2c-1.3-2.2-1.9-4.8-1.9-7.8
			c0-3.2,0.6-5.9,1.9-8.2c1.2-2.2,2.8-4,4.8-5.2c2-1.2,4-1.8,6.2-1.8c1.6,0,3.2,0.3,4.7,0.8c1.5,0.5,2.9,1.3,4.1,2.4
			c1.2,1.1,2.2,2.4,2.9,4c0.7,1.6,1.1,3.5,1.2,5.8c0,0.3-0.1,0.6-0.3,0.8c-0.2,0.2-0.5,0.4-0.8,0.4h-23.3l-0.3-2.2h23l-0.6,0.5v-1
			c-0.2-2-0.8-3.7-1.9-5.1s-2.4-2.4-3.9-3.1s-3.1-1.1-4.7-1.1c-1.1,0-2.3,0.3-3.6,0.8s-2.4,1.3-3.5,2.3c-1.1,1-1.9,2.4-2.6,4
			s-1,3.5-1,5.6c0,2.3,0.5,4.4,1.4,6.4c0.9,1.9,2.3,3.5,4.2,4.7c1.8,1.2,4.1,1.8,6.8,1.8c1.3,0,2.5-0.2,3.6-0.7
			c1.1-0.4,2.2-1,3.1-1.7c0.9-0.7,1.7-1.5,2.2-2.3c0.3-0.3,0.6-0.5,1-0.5c0.3,0,0.5,0.1,0.7,0.3s0.3,0.4,0.3,0.7
			c0,0.3-0.1,0.5-0.2,0.7c-1.2,1.5-2.7,2.8-4.5,4C597.8,145,595.7,145.5,593.5,145.5z"/>
		<path class="st0" d="M629.6,145c-0.3,0-0.6-0.1-0.8-0.3c-0.2-0.2-0.3-0.5-0.3-0.8v-37.6c0-0.3,0.1-0.6,0.3-0.8
			c0.2-0.2,0.5-0.3,0.8-0.3h21.5c0.3,0,0.6,0.1,0.8,0.3c0.2,0.2,0.3,0.5,0.3,0.8c0,0.3-0.1,0.6-0.3,0.8c-0.2,0.2-0.5,0.3-0.8,0.3
			h-20.5l0.2-0.2v16.4l-0.2-0.5h18c0.3,0,0.6,0.1,0.8,0.3c0.2,0.2,0.3,0.5,0.3,0.8c0,0.3-0.1,0.6-0.3,0.8c-0.2,0.2-0.5,0.3-0.8,0.3
			h-18.1l0.3-0.5v18.9c0,0.3-0.1,0.6-0.3,0.8C630.2,144.9,630,145,629.6,145z"/>
		<path class="st0" d="M681.3,116.5c0.3,0,0.6,0.1,0.8,0.3c0.2,0.2,0.3,0.5,0.3,0.8v16.6c0,3.7-1,6.5-3.1,8.3
			c-2.1,1.8-4.8,2.8-8.2,2.8c-3.4,0-6.1-0.9-8.2-2.8c-2.1-1.8-3.1-4.6-3.1-8.3v-16.6c0-0.3,0.1-0.6,0.3-0.8c0.2-0.2,0.5-0.3,0.8-0.3
			c0.3,0,0.6,0.1,0.8,0.3c0.2,0.2,0.3,0.5,0.3,0.8v16.6c0,2.9,0.8,5.1,2.4,6.6c1.6,1.5,3.8,2.3,6.6,2.3c2.8,0,5-0.8,6.6-2.3
			s2.4-3.7,2.4-6.6v-16.6c0-0.3,0.1-0.6,0.3-0.8C680.7,116.7,681,116.5,681.3,116.5z"/>
		<path class="st0" d="M704.9,115.6c2.4,0,4.3,0.5,5.8,1.4c1.5,1,2.6,2.2,3.3,3.9s1.1,3.5,1.1,5.5v17.4c0,0.3-0.1,0.6-0.3,0.8
			c-0.2,0.2-0.5,0.3-0.8,0.3c-0.3,0-0.6-0.1-0.8-0.3c-0.2-0.2-0.3-0.5-0.3-0.8v-17.2c0-1.6-0.3-3.1-0.8-4.4
			c-0.6-1.3-1.4-2.4-2.6-3.2s-2.8-1.2-4.7-1.2c-1.7,0-3.3,0.4-4.9,1.2s-2.9,1.9-4,3.2s-1.6,2.8-1.6,4.4v17.2c0,0.3-0.1,0.6-0.3,0.8
			c-0.2,0.2-0.5,0.3-0.8,0.3c-0.3,0-0.6-0.1-0.8-0.3c-0.2-0.2-0.3-0.5-0.3-0.8v-26.2c0-0.3,0.1-0.6,0.3-0.8c0.2-0.2,0.5-0.3,0.8-0.3
			c0.3,0,0.6,0.1,0.8,0.3c0.2,0.2,0.3,0.5,0.3,0.8v5.6l-1.4,2.7c0-1.4,0.4-2.7,1.1-3.9c0.7-1.3,1.7-2.4,2.8-3.3
			c1.2-1,2.5-1.7,3.9-2.3C702,115.9,703.5,115.6,704.9,115.6z"/>
		<path class="st0" d="M747.8,102.8c0.3,0,0.6,0.1,0.8,0.3c0.2,0.2,0.3,0.5,0.3,0.8v39.9c0,0.3-0.1,0.6-0.3,0.8
			c-0.2,0.2-0.5,0.3-0.8,0.3c-0.3,0-0.6-0.1-0.8-0.3c-0.2-0.2-0.3-0.5-0.3-0.8v-8.1l0.9-1.3c0,1.3-0.3,2.6-0.9,3.9
			c-0.6,1.3-1.4,2.5-2.5,3.6s-2.3,1.9-3.8,2.6c-1.4,0.6-3,1-4.7,1c-2.5,0-4.8-0.7-6.8-2c-2-1.3-3.6-3.1-4.7-5.4
			c-1.2-2.3-1.7-4.8-1.7-7.7c0-2.9,0.6-5.4,1.7-7.7c1.2-2.3,2.7-4,4.7-5.3c2-1.3,4.2-1.9,6.8-1.9c1.6,0,3,0.3,4.5,0.9
			c1.4,0.6,2.7,1.4,3.8,2.5c1.1,1.1,2,2.3,2.6,3.7s1,3,1,4.6l-0.9-1.4v-22c0-0.3,0.1-0.6,0.3-0.8
			C747.2,102.9,747.5,102.8,747.8,102.8z M735.9,143.4c2.2,0,4.1-0.6,5.7-1.7c1.7-1.1,3-2.6,3.9-4.6c0.9-1.9,1.4-4.1,1.4-6.6
			c0-2.5-0.5-4.7-1.4-6.6c-1-1.9-2.3-3.4-3.9-4.5c-1.7-1.1-3.6-1.7-5.7-1.7c-2.1,0-4,0.6-5.6,1.7c-1.7,1.1-3,2.6-4,4.5
			c-1,1.9-1.5,4.1-1.5,6.6c0,2.4,0.5,4.6,1.5,6.6c1,1.9,2.3,3.5,4,4.6C731.9,142.8,733.8,143.4,735.9,143.4z"/>
	</g>
</g>
</svg>
